<?xml version="1.0" standalone="no"?>
<!DOCTYPE svg PUBLIC "-//W3C//DTD SVG 20010904//EN"
 "http://www.w3.org/TR/2001/REC-SVG-20010904/DTD/svg10.dtd">
<svg version="1.0" xmlns="http://www.w3.org/2000/svg"
 width="1024.000000pt" height="1024.000000pt" viewBox="0 0 1024.000000 1024.000000"
 preserveAspectRatio="xMidYMid meet">

<g transform="translate(0.000000,1024.000000) scale(0.100000,-0.100000)"
fill="#ffffff" stroke="none">
<path d="M4400 8721 c-223 -51 -461 -171 -887 -449 -125 -82 -248 -159 -272
-171 -94 -48 -124 -52 -506 -66 -199 -7 -233 -13 -280 -45 -22 -15 -132 -82
-245 -150 -289 -173 -332 -202 -323 -211 11 -10 235 -64 353 -84 152 -26 160
-30 160 -73 0 -21 11 -58 25 -84 14 -26 25 -64 25 -85 0 -36 -8 -45 -132 -163
-224 -211 -440 -430 -527 -535 -351 -424 -516 -815 -538 -1275 -19 -404 127
-808 437 -1210 95 -123 366 -393 500 -496 286 -222 632 -426 965 -569 108 -46
112 -49 225 -164 141 -144 212 -205 360 -311 390 -279 806 -443 1305 -516 169
-25 538 -25 693 -1 318 50 558 127 819 262 601 312 1064 832 1326 1490 146
364 216 805 189 1175 -35 466 -169 884 -414 1297 -249 418 -629 766 -1073 983
-610 298 -1309 359 -1945 170 -824 -246 -1485 -865 -1775 -1666 -200 -551
-217 -1176 -49 -1755 36 -125 126 -362 146 -387 21 -24 85 -61 248 -142 522
-260 1030 -418 1715 -534 192 -33 212 -38 233 -62 17 -20 22 -34 17 -53 -11
-45 -31 -53 -120 -46 -313 25 -628 81 -980 176 -581 156 -1169 413 -1580 689
-459 308 -817 742 -954 1155 -51 155 -62 226 -68 435 -5 182 -3 204 21 321 63
312 218 616 462 909 137 164 527 543 611 594 8 4 31 -5 55 -22 39 -27 82 -47
176 -82 66 -25 79 -108 47 -289 -9 -51 -13 -96 -10 -99 3 -3 29 17 58 45 28
27 99 90 157 138 153 129 299 280 341 353 20 34 63 129 94 210 32 81 69 160
84 176 14 15 123 98 241 184 509 369 664 492 800 640 99 107 143 182 148 252
3 45 0 60 -17 82 -53 67 -196 92 -341 59z m2954 -4373 c34 -46 103 -82 198
-105 75 -17 101 -33 56 -33 -12 0 -57 -9 -100 -21 -58 -16 -88 -31 -122 -60
-47 -42 -64 -76 -103 -209 -13 -47 -28 -89 -33 -94 -5 -5 -13 10 -20 35 -56
218 -68 244 -133 287 -27 18 -74 34 -146 48 -58 12 -99 24 -91 26 8 3 58 18
110 32 189 54 231 106 255 311 4 33 10 64 13 70 4 5 25 -49 48 -121 23 -75 53
-147 68 -166z m-682 -788 c20 -39 33 -50 96 -81 l74 -35 -66 -28 c-103 -44
-119 -67 -150 -209 -9 -41 -23 -25 -46 54 -26 86 -58 123 -132 153 l-57 23 59
28 c95 45 122 87 136 205 l7 65 29 -65 c15 -36 38 -85 50 -110z"/>
<path d="M7686 8140 c-43 -193 -141 -297 -321 -341 -38 -9 -63 -19 -55 -22 8
-4 44 -16 79 -27 154 -51 251 -171 299 -368 18 -75 32 -93 32 -41 0 51 59 210
99 269 46 68 125 125 203 146 32 9 58 20 58 25 0 7 -62 29 -84 29 -20 0 -114
54 -144 83 -54 52 -101 138 -123 228 -11 46 -22 85 -24 87 -1 2 -10 -29 -19
-68z"/>
</g>
</svg>
